<svg xmlns="http://www.w3.org/2000/svg" width="129.161" height="123" viewBox="0 0 129.161 123">
    <defs>
        <style>
            .cls-2{fill:none;stroke:currentColor;stroke-linecap:round;stroke-linejoin:round;stroke-width:3px}
        </style>
    </defs>
    <g id="Group_1321" transform="translate(-105.5 -821.5)">
        <path id="Path_6834" fill="none" fill-rule="evenodd" stroke="currentColor" stroke-linecap="round" stroke-linejoin="round" stroke-width="3px" d="M189.46 769.8c0 12.859-10.17 23.28-22.719 23.28h-53.018C101.174 793.075 91 782.655 91 769.8v-72.092a3.834 3.834 0 0 1 3.788-3.882h90.893a3.822 3.822 0 0 1 3.778 3.871z" transform="translate(16 144.56)"/>
        <path id="Path_6835" d="M91 699.478h98.46" class="cls-2" transform="translate(16 169.679)"/>
        <path id="Path_6836" d="M102.2 720.192a7.2 7.2 0 0 1-7.24-7.11V698.11a7.241 7.241 0 0 1 14.48 0" class="cls-2" transform="translate(33.582 132)"/>
        <path id="Path_6837" d="M110.109 720.192a7.2 7.2 0 0 1-7.241-7.11V698.11a7.242 7.242 0 0 1 14.482 0" class="cls-2" transform="translate(68.745 132)"/>
        <circle id="Ellipse_34" cx="27.693" cy="27.693" r="27.693" fill="#fff" stroke="currentColor" stroke-linecap="round" stroke-linejoin="round" stroke-width="3px" transform="translate(177.776 887.615)"/>
        <path id="Path_6838" d="M108.8 704.847v18.946h18.946" class="cls-2" transform="translate(95.121 193.54)"/>
    </g>
</svg>
