<svg xmlns="http://www.w3.org/2000/svg" width="24" height="24" viewBox="0 0 24 24">
    <defs>
        <style>
            .cls-2{fill:none;stroke:#000;stroke-linecap:round;stroke-linejoin:round}
        </style>
    </defs>
    <g id="Group_3166" transform="translate(20805 -13312)">
        <path id="Rectangle_6585" fill="none" d="M0 0H24V24H0z" transform="translate(-20805 13312)"/>
        <g id="Group_3165" transform="translate(-1 1)">
            <path id="Path_6689" d="M330.29 145.1h8" class="cls-2" transform="translate(-21127.289 13182.903)"/>
            <path id="Path_9938" d="M330.29 145.1h8" class="cls-2" transform="translate(-21127.289 13179.903)"/>
            <path id="Path_9939" d="M330.29 145.1h4" class="cls-2" transform="translate(-21127.289 13176.903)"/>
            <path id="Path_9940" d="M330.29 145.1h4" class="cls-2" transform="rotate(45 -26128.457 -18761.688)"/>
            <path id="Path_9941" d="M330.29 145.1h4" class="cls-2" transform="rotate(135 -12955.552 2357.6)"/>
            <path id="Path_6690" d="M314.328 53.549v5.087a3.43 3.43 0 0 1-3.231 3.6h-7.539a3.43 3.43 0 0 1-3.231-3.6v-13.8a.571.571 0 0 1 .538-.6h6.868" class="cls-2" transform="translate(-21100.328 13270.764)"/>
            <circle id="Ellipse_341" cx="4" cy="4" r="4" fill="none" stroke="#000" transform="translate(-20791 13314)"/>
        </g>
    </g>
</svg>
