<svg xmlns="http://www.w3.org/2000/svg" width="24" height="24" viewBox="0 0 24 24">
  <path fill="none" d="M0 0h24v24H0z"/>
  <g stroke="currentColor">
    <path stroke-width=".5" d="M19.609 10.328a.2.2 0 01.4 0l.2 7.87a3.837 3.837 0 01-3.851 3.83H7.844a3.837 3.837 0 01-3.851-3.83V4.268a.809.809 0 01.811-.81h8.384a.2.2 0 110 .4H4.804a.406.406 0 00-.406.41v13.93a3.441 3.441 0 003.446 3.43h8.514a3.441 3.441 0 003.446-3.43z"/>
    <path stroke-width=".2" d="M20.009 1.188a.386.386 0 01.519-.14.381.381 0 01.144.52l-8.353 14.73a.378.378 0 01-.6.08l-3.59-3.59a.384.384 0 010-.54.4.4 0 01.539 0l3.235 3.24z"/>
  </g>
</svg>
