<svg xmlns="http://www.w3.org/2000/svg" width="24" height="24" viewBox="0 0 24 24">
  <defs>
    <style>
      .cls-1{fill: none;stroke: currentColor;stroke-linecap: round;stroke-linejoin: round}
    </style>
  </defs>
  <g id="Group_1365">
    <g id="Icon_feather-settings">
      <path id="Path_6807" d="M15 12a3 3 0 11-3-3 3 3 0 013 3z" class="cls-1"/>
      <path id="Path_6808" d="M19.4 15a1.65 1.65 0 00.33 1.82l.06.06a2 2 0 11-2.83 2.83l-.06-.06a1.663 1.663 0 00-2.82 1.18V21a2 2 0 01-4 0v-.09A1.65 1.65 0 009 19.4a1.65 1.65 0 00-1.82.33l-.06.06a2 2 0 11-2.83-2.83l.06-.06a1.663 1.663 0 00-1.18-2.82H3a2 2 0 110-4h.09A1.65 1.65 0 004.6 9a1.65 1.65 0 00-.33-1.82l-.06-.06a2 2 0 112.83-2.83l.06.06a1.65 1.65 0 001.82.33H9a1.65 1.65 0 001-1.51V3a2 2 0 014 0v.09a1.663 1.663 0 002.82 1.18l.06-.06a2 2 0 112.83 2.83l-.06.06a1.65 1.65 0 00-.33 1.82V9a1.65 1.65 0 001.51 1H21a2 2 0 010 4h-.09a1.65 1.65 0 00-1.51 1z" class="cls-1"/>
    </g>
    <path id="Rectangle_6583" fill="none" d="M0 0h24v24H0z"/>
  </g>
</svg>
