<svg xmlns="http://www.w3.org/2000/svg" viewBox="0 0 24.673 24" height="24" width="24.673">
  <path d="M1.7 3.326c-.666 0-1.212.558-1.2 1.223v13.23a4.735 4.735 0 004.674 4.778h9.744a4.672 4.672 0 001.973-.473c-.294-.222-.735-.315-.974-.594-.375.132-.591.062-1.01.067H5.18a3.72 3.72 0 01-3.68-3.778V4.54a.192.192 0 01.2-.213h16.696a.192.192 0 01.198.211l-.006 8.598a5.058 5.058 0 011-.17l.006-8.42A1.207 1.207 0 0018.4 3.326z" fill="currentColor" fill-rule="evenodd" />
  <path d="M1 9.478h18.085" fill="none" stroke="currentColor" />
  <path d="M6.285.477c-.443 0-.893.145-1.246.459-.352.313-.584.802-.584 1.37v2.75a.5.5 0 000 .006 1.83 1.83 0 001.834 1.8.5.5 0 00.496-.503.5.5 0 00-.502-.498.814.814 0 01-.828-.81V2.307c0-.319.102-.495.248-.625a.887.887 0 01.582-.205c.222 0 .438.075.584.205.146.13.246.306.246.625a.5.5 0 00.5.5.5.5 0 00.5-.5c0-.569-.23-1.058-.582-1.371a1.872 1.872 0 00-1.248-.46zM14.2.477c-.444 0-.894.145-1.247.459-.352.313-.584.802-.584 1.37v2.75a.5.5 0 000 .006 1.831 1.831 0 001.834 1.8.5.5 0 00.496-.503.5.5 0 00-.502-.498.816.816 0 01-.828-.812V2.307c0-.319.102-.495.248-.625a.887.887 0 01.582-.205c.222 0 .436.075.582.205.147.13.248.306.248.625a.5.5 0 00.5.5.5.5 0 00.5-.5c0-.569-.23-1.058-.582-1.371A1.872 1.872 0 0014.2.476zM19.088 12.367a5.596 5.596 0 00-5.588 5.588 5.596 5.596 0 005.588 5.588c3.01 0 5.438-2.408 5.547-5.393.009-.2 0-.386 0-.386-.107-2.987-2.535-5.397-5.547-5.397zm0 1a4.58 4.58 0 014.586 4.588 4.58 4.58 0 01-4.586 4.588 4.581 4.581 0 01-4.588-4.588 4.581 4.581 0 014.588-4.588z" fill="currentColor" />
  <path d="M18.8 14.348a.5.5 0 00-.5.5v3.478a.5.5 0 00.5.5h3.48a.5.5 0 00.5-.5.5.5 0 00-.5-.5H19.3v-2.978a.5.5 0 00-.5-.5z" fill="currentColor" />
  <path fill="none" d="M0 0h24v24H0z"/>
</svg>
