<svg xmlns="http://www.w3.org/2000/svg" width="20.028" height="23.37" viewBox="0 0 20.028 23.37">
  <defs>
    <style>
      .cls-2{fill:none;stroke:currentColor;stroke-linecap:round;stroke-linejoin:round}
    </style>
  </defs>
  <g id="Group_1347" transform="translate(-963.501 -1260.5)">
    <path id="Path_6860" fill="none" fill-rule="evenodd" stroke="currentColor" stroke-linecap="round" stroke-linejoin="round" d="M109.572 1032.34a4.5 4.5 0 01-4.391 4.59H94.935a4.5 4.5 0 01-4.391-4.59v-14.22a.746.746 0 01.732-.76h17.566a.745.745 0 01.73.76z" transform="translate(873.457 246.44)"/>
    <path id="Path_6861" d="M103.592 1026.86l-4.77 6.15-2.3-2.96" class="cls-2" transform="translate(873.457 246.44)"/>
    <path id="Path_6862" d="M90.544 1022.95h19.028" class="cls-2" transform="translate(873.457 246.44)"/>
    <path id="Path_6863" d="M95.709 1020.15a1.362 1.362 0 01-1.359-1.36v-2.87a1.359 1.359 0 112.718 0" class="cls-2" transform="translate(873.457 246.44)"/>
    <path id="Path_6864" d="M104.407 1020.15a1.363 1.363 0 01-1.359-1.36v-2.87a1.359 1.359 0 112.718 0" class="cls-2" transform="translate(873.457 246.44)"/>
  </g>
</svg>
