<svg xmlns="http://www.w3.org/2000/svg" width="387.682" height="132" viewBox="0 0 387.682 132" fill="currentColor">
  <g id="Group_2785" transform="translate(-760 -222.413)">
    <g id="Group_2782" transform="translate(760 227.223)">
      <path id="Path_9657" d="M1656.078 4332.019h-59.885l-2.893-26.419 54.819-75.627h43.06v73.093h15.016v28.949h-15.016v22.072h-35.1zm0-28.949v-37.27l-26.776 37.27z" class="cls-1" transform="translate(-1593.298 -4229.977)"/>
    </g>
    <g id="Group_2783" transform="translate(1034.786 227.223)">
      <path id="Path_9658" d="M2085.432 4332.019h-59.886l-2.895-26.415 54.819-75.627h43.061v73.093h15.016v28.949h-15.016v22.072h-35.1zm0-28.949v-37.27l-26.777 37.27z" class="cls-1" transform="translate(-2022.652 -4229.977)"/>
    </g>
    <path id="Path_9659" d="M1860.011 4222.463a66 66 0 1 0 66 66 66 66 0 0 0-66-66zm0 103.052a37.052 37.052 0 1 1 37.051-37.051 37.051 37.051 0 0 1-37.05 37.051z" class="cls-1" transform="translate(-905.556 -4000.05)"/>
  </g>
</svg>
