<svg id="MiniAnywhere-Logo_final" xmlns="http://www.w3.org/2000/svg" width="73.953" height="38.45" viewBox="0 0 73.953 38.45">
  <path id="Path_9994" data-name="Path 9994" d="M778.837,10.5c0,5.8-10.5,14.607-10.5,14.607S757.84,16.3,757.84,10.5a10.5,10.5,0,1,1,21,0Z" transform="translate(-726.701)"/>
  <path id="Path_9995" data-name="Path 9995" d="M4.27,402.778H5.324v-7.459H4.27v-.648H6.878L9.7,400.844l2.635-6.173h2.606v.648H13.889v7.459h1.053v.648h-3.7v-.648h1.013v-6.04l-2.58,6.04H8.837l-2.77-6.027v6.027h1v.648H4.27Z" transform="translate(-4.095 -378.454)"/>
  <path id="Path_9996" data-name="Path 9996" d="M288.675,395.319v7.459h1.31v.648H285.73v-.648h1.31v-7.459h-1.31v-.648h4.256v.648Z" transform="translate(-273.99 -378.454)"/>
  <path id="Path_9997" data-name="Path 9997" d="M411,402.778h1.054v-7.459H411v-.648h2.419l3.85,6.025v-5.377h-1.04v-.648h2.835v.648h-1.051v8.106h-1l-4.215-6.66v6.014h1.013v.648H411Z" transform="translate(-394.112 -378.454)"/>
  <path id="Path_9998" data-name="Path 9998" d="M628.655,395.319v7.459h1.311v.648H625.71v-.648h1.311v-7.459H625.71v-.648h4.256v.648Z" transform="translate(-600 -378.454)"/>
  <path id="Path_9999" data-name="Path 9999" d="M8.741,730.778v.648H5v-.648H6.052l-.824-2.445H2.675l-.851,2.445h1v.648H0v-.648H1.027l2.891-8.108h.959l2.891,8.108ZM5,727.655,4,724.7H3.931L2.9,727.655Z" transform="translate(0 -692.977)"/>
  <path id="Path_10000" data-name="Path 10000" d="M236.08,730.778h1.054v-7.46H236.08v-.648H238.5l3.851,6.026v-5.378h-1.04v-.648h2.837v.648h-1.054v8.106h-1l-4.215-6.66v6.014h1.013v.648h-2.81Z" transform="translate(-226.38 -692.977)"/>
  <path id="Path_10001" data-name="Path 10001" d="M451.374,727.385v3.393h1.162v.648h-3.958v-.648h1.162v-3.069l-2.175-4.391H446.51v-.648h3.756v.648h-.973l1.633,3.351,1.742-3.351h-1.081v-.648h2.918v.648h-1.052Z" transform="translate(-428.163 -692.977)"/>
  <path id="Path_10002" data-name="Path 10002" d="M667.1,723.318h-1.053l-2.378,8.106h-.918l-2.1-6.187-1.877,6.187h-.931l-2.486-8.106H654.29v-.648h3.782v.648H657l1.716,5.742,1.89-6.336h.862l2.137,6.363,1.68-5.768h-1.055v-.648H667.1Z" transform="translate(-627.406 -692.977)"/>
  <path id="Path_10003" data-name="Path 10003" d="M994.539,723.318v7.46h1.054v.648h-3.742v-.648H992.9v-3.637h-3.486v3.637h1.054v.648H986.73v-.648h1.054v-7.46H986.73v-.648h3.756v.648h-1.068v3.148H992.9v-3.148h-1.054v-.648h3.742v.648Z" transform="translate(-946.187 -692.977)"/>
  <path id="Path_10004" data-name="Path 10004" d="M1231.1,728.966v2.458h-6.972v-.646h1.055v-7.46h-1.055v-.648h6.862v2.459h-.945l-.689-1.811h-2.539v3.148h1.406v-1.054h.81V728.2h-.81v-1.055h-1.406v3.637h2.661l.675-1.81Z" transform="translate(-1173.831 -692.977)"/>
  <path id="Path_10005" data-name="Path 10005" d="M1420.24,730.778v.648h-2.417l-2.459-3.971h-.758v3.323h1.056v.648h-3.742v-.648h1.055v-7.46h-1.055v-.648h4.068c1.96,0,2.823,1.109,2.823,2.364a2.326,2.326,0,0,1-1.729,2.271l2.229,3.472Zm-5.635-3.974h1.23c.676,0,1.244-.784,1.244-1.771s-.513-1.715-1.244-1.715h-1.23Z" transform="translate(-1353.905 -692.977)"/>
  <path id="Path_10006" data-name="Path 10006" d="M1637.171,728.966v2.458h-6.97v-.646h1.051v-7.46H1630.2v-.648h6.862v2.459h-.946l-.69-1.811h-2.539v3.148h1.406v-1.054h.81V728.2h-.81v-1.055h-1.406v3.637h2.661l.674-1.81Z" transform="translate(-1563.218 -692.977)"/>
  <path id="Path_10007" data-name="Path 10007" d="M804.43,179.1a1.564,1.564,0,0,0,.014,3.128,1.564,1.564,0,1,0-.014-3.128Zm0,2.5a.941.941,0,1,1,.947-.935A.949.949,0,0,1,804.433,181.6Zm14.7-2.106a.312.312,0,0,1-.135-.2,1.216,1.216,0,0,0-.5-.948,3.268,3.268,0,0,0-1.068-.529,12.414,12.414,0,0,0-2.914-.452.433.433,0,0,1-.246-.118c-.5-.479-.982-.968-1.475-1.449a1.688,1.688,0,0,0-1.133-.452q-2.938-.169-5.88-.128c-.527.007-1.054.046-1.581.084-.2.014-.287.151-.271.35a.216.216,0,0,1-.053.156,3.816,3.816,0,0,0-.823,1.092.294.294,0,0,1-.109.123,1.138,1.138,0,0,0-.468.5,3.066,3.066,0,0,0-.329,1.179.351.351,0,0,1-.107.21.655.655,0,0,0-.275.5,8.865,8.865,0,0,0,.109,1.027c.054.337.156.394.5.347.195-1.345.938-2.116,2.063-2.134a2.092,2.092,0,0,1,2.134,2.253l-.028.186h0c-.006.029-.018.089-.033.169l7.694.229a1.174,1.174,0,0,0-.029-.128l-.059-.247a2.119,2.119,0,0,1,2.106-2.484,2.1,2.1,0,0,1,1.995,2.584c.192.009.383.024.573.023a.285.285,0,0,0,.3-.225c.083-.366.156-.734.224-1.1A.386.386,0,0,0,819.129,179.495ZM802.761,178.4c-.042.116-.1.258-.239.217-.067-.019-.1-.164-.146-.258.079-.253.146-.485.224-.711a.359.359,0,0,1,.129-.179.853.853,0,0,1,.238-.066.919.919,0,0,1,0,.212m5.4-1.882c1.044.013,2.089.023,3.133.041a.348.348,0,0,1,.239.095c.472.556.936,1.12,1.4,1.683.007.007.006.021.014.058l-4.894-.208c-.022-.56-.041-1.1-.066-1.669Zm-4.349,1.482a1.289,1.289,0,0,1,.055-.131c.241-.416.487-.829.724-1.247a.256.256,0,0,1,.26-.148c.8.018,1.59.027,2.384.041.033,0,.068,0,.107.008v1.644Zm14.42,1.955a1.5,1.5,0,0,1-.827-.925c-.041-.141.022-.206.157-.187a1.362,1.362,0,0,1,.858.979C818.629,179.177,818.554,179.229,818.439,179.174Zm-2.3-.075a1.564,1.564,0,0,0,0,3.128,1.564,1.564,0,1,0,0-3.128Zm0,2.5a.948.948,0,0,1-.94-.942.939.939,0,0,1,1.879,0A.944.944,0,0,1,816.14,181.6Z" transform="translate(-768.815 -168.012)" fill="#fff"/>
  <path id="Path_10008" data-name="Path 10008" d="M938.44,290.689l1.142-.689a.74.74,0,0,0-.179-1.344L933.616,287a.75.75,0,0,0-.205-.028.738.738,0,0,0-.69,1.005l2.161,5.617a.74.74,0,0,0,.658.473h.032a.737.737,0,0,0,.664-.415l.587-1.2,2.841,2.591c.222-.239.447-.483.67-.733q.475-.532.908-1.047Z" transform="translate(-894.349 -275.179)" fill="#fff"/>
  <path id="Path_10009" data-name="Path 10009" d="M949.954,302.917a.234.234,0,0,1,.037-.37l1.467-.888a.22.22,0,0,0-.053-.4L945.62,299.6a.222.222,0,0,0-.224.063.218.218,0,0,0-.043.229l2.161,5.617a.224.224,0,0,0,.2.142h.009a.223.223,0,0,0,.2-.123l.749-1.533a.248.248,0,0,1,.1-.109.231.231,0,0,1,.053-.021.22.22,0,0,1,.052-.009h.01a.229.229,0,0,1,.156.061l3.124,2.85.318-.352q.294-.329.573-.652Z" transform="translate(-906.494 -287.282)"/>
</svg>
