<?xml version="1.0" standalone="no"?>
<!DOCTYPE svg PUBLIC "-//W3C//DTD SVG 20010904//EN"
 "http://www.w3.org/TR/2001/REC-SVG-20010904/DTD/svg10.dtd">
<svg version="1.0" xmlns="http://www.w3.org/2000/svg"
 width="700.000000pt" height="700.000000pt" viewBox="0 0 700.000000 700.000000"
 preserveAspectRatio="xMidYMid meet">
<metadata>
Created by potrace 1.11, written by Peter Selinger 2001-2013
</metadata>
<g transform="translate(0.000000,700.000000) scale(0.100000,-0.100000)"
fill="#000000" stroke="none">
<path d="M0 5660 l0 -1340 1098 0 1097 0 56 78 c226 311 551 520 943 604 137
30 445 32 581 5 215 -44 442 -141 615 -264 117 -84 256 -222 339 -336 l63 -87
1104 0 1104 0 0 1340 0 1340 -3500 0 -3500 0 0 -1340z"/>
<path d="M3284 4785 c-180 -32 -379 -113 -533 -217 -96 -66 -260 -230 -328
-328 -109 -160 -188 -356 -219 -548 -19 -117 -14 -359 10 -467 88 -395 340
-725 690 -902 300 -151 637 -184 966 -93 98 27 280 115 377 182 99 67 254 221
322 318 283 403 319 921 95 1360 -179 350 -502 597 -899 686 -99 22 -376 27
-481 9z m-551 -1210 c49 -146 90 -265 92 -265 2 0 42 119 90 265 l86 265 99 0
100 0 0 -345 0 -345 -70 0 -70 0 0 247 c0 135 -3 244 -6 241 -3 -3 -38 -113
-78 -244 l-73 -239 -78 0 -79 0 -73 239 c-40 131 -75 241 -78 244 -3 3 -5
-106 -5 -241 l0 -247 -75 0 -75 0 0 345 0 345 103 0 102 0 88 -265z m777 -80
l0 -345 -70 0 -70 0 0 345 0 345 70 0 70 0 0 -345z m460 93 l135 -247 3 250 2
249 70 0 70 0 0 -344 0 -343 -52 -7 c-119 -14 -96 -35 -250 237 l-138 242 0
-237 0 -238 -70 0 -70 0 0 345 0 346 83 -3 82 -3 135 -247z m580 -93 l0 -345
-70 0 -70 0 0 345 0 345 70 0 70 0 0 -345z"/>
<path d="M0 2157 l0 -2157 3500 0 3500 0 0 2157 0 2158 -113 -113 -112 -112
-930 0 -930 0 40 -125 40 -125 765 0 765 0 -110 -110 -110 -110 -637 0 -638 0
0 -125 0 -125 505 0 c278 0 505 -3 505 -8 0 -4 -48 -56 -108 -115 l-107 -107
-417 0 -417 0 -16 -57 c-9 -32 -27 -88 -40 -125 l-25 -68 333 0 332 0 -110
-110 -110 -110 -281 0 -280 0 -48 -70 c-111 -162 -314 -344 -496 -444 -241
-134 -427 -185 -702 -193 -278 -9 -470 29 -708 139 -224 104 -462 302 -594
496 l-50 72 -275 0 -276 0 -110 110 -110 110 325 0 325 0 -40 125 -40 125
-410 0 -410 0 -108 108 c-59 59 -107 111 -107 115 0 4 225 7 500 7 l500 0 0
125 0 125 -633 0 -632 0 -110 110 -110 110 761 0 762 0 16 66 c9 36 25 88 36
117 11 29 20 55 20 60 0 4 -415 7 -922 7 l-923 0 -112 112 -113 113 0 -2158z"/>
</g>
</svg>
